<svg width="1200" height="600" viewBox="0 0 1200 600" fill="none" xmlns="http://www.w3.org/2000/svg">
  <!-- Background gradient -->
  <defs>
    <linearGradient id="bgGradient" x1="0%" y1="0%" x2="100%" y2="100%">
      <stop offset="0%" style="stop-color:#0a0a0a;stop-opacity:1" />
      <stop offset="50%" style="stop-color:#1a1a1a;stop-opacity:1" />
      <stop offset="100%" style="stop-color:#0f0f0f;stop-opacity:1" />
    </linearGradient>
    <linearGradient id="accentGradient" x1="0%" y1="0%" x2="100%" y2="0%">
      <stop offset="0%" style="stop-color:#22c55e;stop-opacity:0.8" />
      <stop offset="50%" style="stop-color:#16a34a;stop-opacity:0.6" />
      <stop offset="100%" style="stop-color:#15803d;stop-opacity:0.4" />
    </linearGradient>
    <filter id="glow">
      <feGaussianBlur stdDeviation="3" result="coloredBlur"/>
      <feMerge> 
        <feMergeNode in="coloredBlur"/>
        <feMergeNode in="SourceGraphic"/>
      </feMerge>
    </filter>
  </defs>
  
  <!-- Background -->
  <rect width="1200" height="600" fill="url(#bgGradient)"/>
  
  <!-- Grid pattern -->
  <defs>
    <pattern id="grid" width="40" height="40" patternUnits="userSpaceOnUse">
      <path d="M 40 0 L 0 0 0 40" fill="none" stroke="#22c55e" stroke-width="0.5" opacity="0.1"/>
    </pattern>
  </defs>
  <rect width="1200" height="600" fill="url(#grid)"/>
  
  <!-- Floating geometric shapes -->
  <circle cx="200" cy="150" r="60" fill="url(#accentGradient)" opacity="0.3" filter="url(#glow)"/>
  <rect x="800" y="100" width="80" height="80" fill="url(#accentGradient)" opacity="0.2" transform="rotate(45 840 140)"/>
  <polygon points="1000,200 1050,150 1100,200 1050,250" fill="url(#accentGradient)" opacity="0.25"/>
  
  <!-- Circuit-like lines -->
  <path d="M 100 300 Q 300 250 500 300 T 900 300" stroke="#22c55e" stroke-width="2" fill="none" opacity="0.4"/>
  <path d="M 150 400 Q 350 350 550 400 T 950 400" stroke="#16a34a" stroke-width="1.5" fill="none" opacity="0.3"/>
  
  <!-- Central focal point -->
  <circle cx="600" cy="300" r="120" fill="none" stroke="url(#accentGradient)" stroke-width="2" opacity="0.6"/>
  <circle cx="600" cy="300" r="80" fill="none" stroke="#22c55e" stroke-width="1" opacity="0.8"/>
  <circle cx="600" cy="300" r="40" fill="#22c55e" opacity="0.3"/>
  
  <!-- Tech icons representation -->
  <g transform="translate(500, 250)">
    <!-- Code brackets -->
    <path d="M 0 0 L 0 20 L 10 20 L 10 10 L 5 10 L 5 0 Z" fill="#22c55e" opacity="0.6"/>
    <path d="M 20 0 L 20 20 L 10 20 L 10 10 L 15 10 L 15 0 Z" fill="#22c55e" opacity="0.6"/>
  </g>
  
  <g transform="translate(650, 250)">
    <!-- Database icon -->
    <ellipse cx="10" cy="5" rx="15" ry="5" fill="none" stroke="#22c55e" stroke-width="2" opacity="0.6"/>
    <ellipse cx="10" cy="15" rx="15" ry="5" fill="none" stroke="#22c55e" stroke-width="2" opacity="0.6"/>
    <line x1="0" y1="5" x2="0" y2="15" stroke="#22c55e" stroke-width="2" opacity="0.6"/>
    <line x1="20" y1="5" x2="20" y2="15" stroke="#22c55e" stroke-width="2" opacity="0.6"/>
  </g>
  
  <!-- Floating particles -->
  <circle cx="150" cy="450" r="3" fill="#22c55e" opacity="0.7"/>
  <circle cx="300" cy="500" r="2" fill="#16a34a" opacity="0.5"/>
  <circle cx="900" cy="450" r="4" fill="#22c55e" opacity="0.6"/>
  <circle cx="1050" cy="500" r="2.5" fill="#16a34a" opacity="0.4"/>
  <circle cx="400" cy="100" r="3" fill="#22c55e" opacity="0.5"/>
  <circle cx="800" cy="50" r="2" fill="#16a34a" opacity="0.6"/>
</svg>
