<svg width="1200" height="600" viewBox="0 0 1200 600" xmlns="http://www.w3.org/2000/svg">
  <defs>
    <linearGradient id="bg" x1="0%" y1="0%" x2="100%" y2="100%">
      <stop offset="0%" style="stop-color:#0a0a0a"/>
      <stop offset="100%" style="stop-color:#1a1a1a"/>
    </linearGradient>
    <linearGradient id="accent" x1="0%" y1="0%" x2="100%" y2="0%">
      <stop offset="0%" style="stop-color:#22c55e;stop-opacity:0.8"/>
      <stop offset="100%" style="stop-color:#16a34a;stop-opacity:0.4"/>
    </linearGradient>
  </defs>
  
  <rect width="1200" height="600" fill="url(#bg)"/>
  
  <!-- Simple grid -->
  <defs>
    <pattern id="grid" width="50" height="50" patternUnits="userSpaceOnUse">
      <path d="M 50 0 L 0 0 0 50" fill="none" stroke="#22c55e" stroke-width="1" opacity="0.1"/>
    </pattern>
  </defs>
  <rect width="1200" height="600" fill="url(#grid)"/>
  
  <!-- Central elements -->
  <circle cx="600" cy="300" r="100" fill="none" stroke="url(#accent)" stroke-width="2" opacity="0.6"/>
  <circle cx="600" cy="300" r="60" fill="none" stroke="#22c55e" stroke-width="1" opacity="0.8"/>
  <circle cx="600" cy="300" r="30" fill="#22c55e" opacity="0.3"/>
  
  <!-- Floating shapes -->
  <circle cx="200" cy="150" r="40" fill="url(#accent)" opacity="0.3"/>
  <rect x="800" y="100" width="60" height="60" fill="url(#accent)" opacity="0.2" transform="rotate(45 830 130)"/>
  <polygon points="1000,200 1050,150 1100,200 1050,250" fill="url(#accent)" opacity="0.25"/>
  
  <!-- Simple lines -->
  <path d="M 100 300 Q 300 250 500 300 T 900 300" stroke="#22c55e" stroke-width="2" fill="none" opacity="0.4"/>
  <path d="M 150 400 Q 350 350 550 400 T 950 400" stroke="#16a34a" stroke-width="1.5" fill="none" opacity="0.3"/>
</svg>
